<?xml version="1.0" encoding="UTF-8"?>
<svg width="24px" height="24px" viewBox="0 0 24 24" version="1.1" xmlns="http://www.w3.org/2000/svg" xmlns:xlink="http://www.w3.org/1999/xlink">
    <!-- Generator: sketchtool 61.2 (101010) - https://sketch.com -->
    <title>A5670A09-9E07-46F8-B456-3ABEECAD4E47</title>
    <desc>Created with sketchtool.</desc>
    <g id="Page-1" stroke="none" stroke-width="1" fill="none" fill-rule="evenodd">
        <g id="5---4-Change-Email-or-Pass---Field-Filled" transform="translate(-297.000000, -340.000000)" fill="#7B7B7B">
            <g id="Group-2" transform="translate(17.000000, 272.000000)">
                <g id="mobile/text-field/default/inactive-mobile/text-field/active/no-helper" transform="translate(16.000000, 54.000000)">
                    <g id="icon/hide-password-icon/password-eye/not-visible" transform="translate(264.000000, 14.000000)">
                        <g id="Icons-/-See-Password">
                            <path d="M7.41421356,5.63603897 L18.7279221,16.9497475 C19.1184464,17.3402718 19.1184464,17.9734367 18.7279221,18.363961 C18.3373978,18.7544853 17.7042328,18.7544853 17.3137085,18.363961 L6,7.05025253 C5.60947571,6.65972824 5.60947571,6.02656326 6,5.63603897 C6.39052429,5.24551468 7.02368927,5.24551468 7.41421356,5.63603897 Z M5.71866659,8.18239615 L8.22098938,10.6855426 C8.07780644,11.0972358 8,11.5395315 8,12 C8,14.209139 9.790861,16 12,16 C12.4604685,16 12.9027642,15.9221936 13.3144574,15.7790106 L15.0505832,17.516733 C14.0617971,17.838911 13.0449361,18 12,18 C9.02516154,18 6.2778679,16.6943908 3.7581191,14.0831725 C2.63650869,12.9208465 2.63650904,11.0791441 3.75811989,9.91681851 L3.75811989,9.91681851 L4.03903229,9.63206031 C4.58824344,9.08763399 5.14812154,8.6044126 5.71866659,8.18239615 Z M12,6 C14.9748385,6 17.7221321,7.30560916 20.2418809,9.91682747 C21.3634913,11.0791535 21.363491,12.9208559 20.2418801,14.0831815 L20.2418801,14.0831815 L19.9609677,14.3679397 C19.5443558,14.780922 19.121606,15.1586857 18.6927182,15.501231 L15.9318975,12.7388671 C15.9766165,12.4994049 16,12.2524332 16,12 C16,9.790861 14.209139,8 12,8 C11.7476471,8 11.5007523,8.02336858 11.2613614,8.06805978 L9.51127856,6.31832261 C10.3223597,6.10610754 11.1519335,6 12,6 Z M11.4610185,13.9265344 L11.4223736,13.9153219 C11.4352014,13.9191853 11.4480835,13.9229232 11.4610185,13.9265344 Z" id="eye-icon-closed"></path>
                        </g>
                    </g>
                </g>
            </g>
        </g>
    </g>
</svg>