<?xml version="1.0" encoding="UTF-8"?>
<svg width="24px" height="24px" viewBox="0 0 24 24" version="1.1" xmlns="http://www.w3.org/2000/svg" xmlns:xlink="http://www.w3.org/1999/xlink">
    <!-- Generator: sketchtool 61.2 (101010) - https://sketch.com -->
    <title>4DB89CC8-EF7E-4683-AD04-24C109BEF3C1</title>
    <desc>Created with sketchtool.</desc>
    <g id="Page-1" stroke="none" stroke-width="1" fill="none" fill-rule="evenodd">
        <g id="5---4-Change-Email-or-Pass---Field-Filled" transform="translate(-297.000000, -410.000000)" fill="#7B7B7B">
            <g id="Group-2" transform="translate(17.000000, 272.000000)">
                <g id="mobile/text-field/default/inactive-copy-mobile/text-field/active/no-helper" transform="translate(16.000000, 124.000000)">
                    <g id="icon/hide-password-icon/password-eye/visible" transform="translate(264.000000, 14.000000)">
                        <g id="Icons-/-See-Password">
                            <path d="M12,6 C14.9748385,6 17.7221321,7.30560916 20.2418809,9.91682747 C21.3634913,11.0791535 21.363491,12.9208559 20.2418801,14.0831815 L20.2418801,14.0831815 L19.9609677,14.3679397 C17.5183133,16.7893132 14.8646574,18 12,18 C9.02516154,18 6.2778679,16.6943908 3.7581191,14.0831725 C2.63650869,12.9208465 2.63650904,11.0791441 3.75811989,9.91681851 L3.75811989,9.91681851 L4.03903229,9.63206031 C6.48168668,7.21068677 9.13534258,6 12,6 Z M12,8 C9.790861,8 8,9.790861 8,12 C8,14.209139 9.790861,16 12,16 C14.209139,16 16,14.209139 16,12 C16,9.790861 14.209139,8 12,8 Z M12,10 C13.1045695,10 14,10.8954305 14,12 C14,13.1045695 13.1045695,14 12,14 C10.8954305,14 10,13.1045695 10,12 C10,10.8954305 10.8954305,10 12,10 Z" id="eye-icon-open"></path>
                        </g>
                    </g>
                </g>
            </g>
        </g>
    </g>
</svg>